<?xml version="1.0" encoding="UTF-8"?>
<svg width="150px" height="80px" viewBox="0 0 150 80" version="1.1" xmlns="http://www.w3.org/2000/svg" xmlns:xlink="http://www.w3.org/1999/xlink">
    <!-- Generator: Sketch 48.2 (47327) - http://www.bohemiancoding.com/sketch -->
    <title>2</title>
    <desc>Created with Sketch.</desc>
    <defs></defs>
    <g id="01-home" stroke="none" stroke-width="1" fill="none" fill-rule="evenodd" transform="translate(-305.000000, -4309.000000)">
        <g id="News" transform="translate(135.000000, 4185.000000)">
            <g id="2" transform="translate(170.000000, 124.000000)">
                <rect id="bound" fill="#FFFFFF" x="0" y="0" width="150" height="80"></rect>
                <g id="Logo/News/techcrunch-active" transform="translate(34.000000, 12.000000)">
                    <g id="techchrunch">
                        <path d="M41,0.110592965 L0.140893471,0.110592965 L0.140893471,13.6181307 L13.6666667,13.6181307 L13.6666667,41.4774271 L27.4742268,41.4774271 L27.4742268,13.6181307 L41,13.6181307 L41,0.110592965 Z M54.5257732,0.110592965 L81.8591065,0.110592965 L81.8591065,13.6181307 L54.5257732,13.6181307 L54.5257732,0.110592965 Z M54.5257732,27.2520201 L54.5257732,13.6181307 L41,13.6181307 L41,41.4774271 L81.8591065,41.4774271 L81.8591065,27.272 L54.5257732,27.2520201 Z" id="Shape" fill="#0A9E01" fill-rule="nonzero"></path>
                        <path d="M5.7766323,47.1055678 L5.7766323,55.5477789 L3.52233677,55.5477789 L3.52233677,47.1055678 L0.140893471,47.1055678 L0.140893471,45.4171256 L8.59450172,45.4171256 L8.59450172,47.1055678 L5.7766323,47.1055678 Z M14.9262543,52.1708945 L10.2381649,52.1708945 C10.3125567,53.2965226 11.1040962,53.8126231 11.8508316,53.8126231 C12.4183505,53.8126231 12.8956976,53.6868342 13.1946735,53.3429548 L14.6577113,54.6067538 C14.0307354,55.4115779 12.8956976,55.8950352 11.8508316,55.8950352 C9.5962543,55.8950352 8.16280412,54.3101508 8.16280412,51.8348945 C8.16280412,49.4342111 9.67064605,47.7542111 11.6569622,47.7542111 C13.7475395,47.7542111 14.9564055,49.4395578 14.9564055,51.6764623 C14.9564055,51.9761608 14.9414708,52.1708945 14.9262543,52.1708945 Z M11.5524192,49.6432965 C10.8056838,49.6432965 10.3429897,49.9196382 10.2683162,51.0452663 L12.956,51.0452663 C12.8962612,49.9196382 12.4780893,49.6432965 11.5524192,49.6432965 Z M19.8685155,55.9169849 C17.8227423,55.9169849 16.1957045,54.2468342 16.1957045,51.8461508 C16.1957045,49.4454673 17.7785017,47.760402 19.9581237,47.760402 C21.4513127,47.760402 22.4068522,48.4912161 23.0639794,49.4904925 L21.7054845,50.8620704 C21.2425086,50.2058291 20.749945,49.7434774 19.9138832,49.7434774 C18.9281924,49.7434774 18.2862818,50.5634975 18.2862818,51.8455879 C18.2862818,53.0986935 18.9281924,53.9339095 19.9138832,53.9339095 C20.7197938,53.9339095 21.2275739,53.5762412 21.7655052,52.9349146 L23.0791959,54.1722613 C22.317244,55.1864523 21.4211615,55.9169849 19.8685155,55.9169849 Z M29.1649485,55.5477789 L29.1649485,51.5180302 C29.1649485,50.1169045 28.8964055,49.6992965 28.0451271,49.6992965 C27.1938488,49.6992965 26.9106529,50.1171859 26.9106529,51.4741307 L26.9106529,55.5483417 L24.6563574,55.5483417 L24.6563574,45.9126834 L26.9106529,44.8830151 L26.9106529,48.447598 C26.9106529,48.0747337 27.8137801,47.761809 28.6349072,47.761809 C30.6358763,47.761809 31.419244,49.1333869 31.419244,51.3401809 L31.419244,55.5483417 L29.1649485,55.5477789 Z" id="Shape" fill="#0A9E01" fill-rule="nonzero"></path>
                        <path d="M39.6516495,48.3569849 C39.2782818,47.6416482 38.6811753,47.2237588 37.7408522,47.2237588 C36.1729897,47.2237588 35.2774708,48.5958995 35.2774708,50.5339497 C35.2774708,52.4126231 36.1882062,53.8441407 37.7557869,53.8441407 C38.6972371,53.8441407 39.2495395,53.4417286 39.8015601,52.5173065 L41.5635739,53.5607638 C40.8472715,55.0370251 39.5921924,55.9167035 37.6966117,55.9167035 C34.9641237,55.9167035 33.1271546,53.8283819 33.1271546,50.5333869 C33.1271546,47.3574271 35.0379519,45.1506332 37.7704399,45.1506332 C39.7418213,45.1506332 40.9363162,46.1048844 41.5925979,47.4612663 L39.6516495,48.3569849 Z M47.3263986,50.3251457 C46.9978351,50.0265729 46.6653265,49.8180503 46.2026323,49.8180503 C45.3970034,49.8180503 44.9450172,50.1619296 44.9450172,51.5177487 L44.9450172,55.5474975 L42.6907216,55.5474975 L42.6907216,47.6681005 L44.9450172,47.6681005 L44.9450172,48.4467538 C45.5085911,48.0738894 45.7554364,47.7609648 46.4872371,47.7609648 C47.1587354,47.7609648 47.6304467,48.0288643 47.8989897,48.3125226 L47.3263986,50.3251457 Z M53.9621993,55.4777085 L53.9621993,55.231196 C53.3986254,55.6037789 53.0590722,55.9169849 52.237945,55.9169849 C50.2366942,55.9169849 49.4536082,54.5448442 49.4536082,52.3386131 L49.4536082,47.6683819 L51.1443299,47.6683819 L51.1443299,52.1590754 C51.1443299,53.5607638 51.6946598,53.9783719 52.5462199,53.9783719 C53.3960893,53.9783719 53.9621993,53.560201 53.9621993,52.2032563 L53.9621993,47.6681005 L56.2164948,47.6681005 L56.2164948,55.5474975 L53.8737182,55.5474975 L53.9621993,55.4777085 Z M62.1340206,55.5477789 L62.1340206,51.5180302 C62.1340206,50.1169045 62.0063711,49.6992965 61.154811,49.6992965 C60.3049416,49.6992965 60.161512,50.1171859 60.161512,51.4741307 L60.161512,55.5483417 L57.9072165,55.5483417 L57.9072165,47.6689447 L60.161512,47.6689447 L60.161512,48.447598 C60.161512,48.0747337 60.9237457,47.761809 61.7448729,47.761809 C63.7461237,47.761809 64.3883162,49.1333869 64.3883162,51.3401809 L64.3883162,55.5483417 L62.1340206,55.5477789 Z M69.841457,55.9169849 C67.7956838,55.9169849 66.1689278,54.2468342 66.1689278,51.8461508 C66.1689278,49.4454673 67.7517251,47.760402 69.9313471,47.760402 C71.4250997,47.760402 72.3803574,48.4912161 73.036921,49.4904925 L71.6792715,50.8620704 C71.215732,50.2058291 70.723732,49.7434774 69.8879519,49.7434774 C68.9016976,49.7434774 68.2595052,50.5634975 68.2595052,51.8455879 C68.2595052,53.0986935 68.9016976,53.9339095 69.8879519,53.9339095 C70.6930172,53.9339095 71.2016426,53.5762412 71.7392921,52.9349146 L73.0529828,54.1722613 C72.289622,55.1864523 71.3943849,55.9169849 69.841457,55.9169849 Z M79.0412371,55.753206 L79.0412371,51.5180302 C79.0412371,50.1169045 78.7726942,49.6992965 77.921134,49.6992965 C77.0712646,49.6992965 76.7869416,50.1171859 76.7869416,51.4741307 L76.7869416,55.5483417 L74.532646,55.5483417 L74.532646,45.9126834 L76.7869416,44.8830151 L76.7869416,48.447598 C76.7869416,48.0747337 77.6900687,47.761809 78.5111959,47.761809 C80.5124467,47.761809 81.2955326,49.1333869 81.2955326,51.3401809 L81.2955326,55.5483417 L79.0942131,55.5483417 L79.0412371,55.753206 Z" id="Shape" fill="#343C34" fill-rule="nonzero"></path>
                    </g>
                </g>
            </g>
        </g>
    </g>
</svg>