<?xml version="1.0" encoding="UTF-8"?>
<svg width="150px" height="80px" viewBox="0 0 150 80" version="1.1" xmlns="http://www.w3.org/2000/svg" xmlns:xlink="http://www.w3.org/1999/xlink">
    <!-- Generator: Sketch 48.2 (47327) - http://www.bohemiancoding.com/sketch -->
    <title>3</title>
    <desc>Created with Sketch.</desc>
    <defs></defs>
    <g id="01-home" stroke="none" stroke-width="1" fill="none" fill-rule="evenodd" transform="translate(-475.000000, -4309.000000)">
        <g id="News" transform="translate(135.000000, 4185.000000)">
            <g id="3" transform="translate(340.000000, 124.000000)">
                <rect id="bound" fill="#FFFFFF" x="0" y="0" width="150" height="80"></rect>
                <g id="Logo/News/CNN-id-active" transform="translate(43.000000, 8.000000)">
                    <g id="CNN_Indonesia">
                        <rect id="Rectangle-path" fill="#CC0000" fill-rule="nonzero" x="0" y="0" width="64" height="64"></rect>
                        <g id="Group" transform="translate(6.400000, 15.360000)" fill="#FFFFFF" fill-rule="nonzero">
                            <path d="M6.64384,11.5633067 C6.64384,8.87573333 8.82261333,6.69994667 11.5099733,6.69994667 L15.20256,6.69994667 L15.20256,3.94624 L11.4798933,3.94624 C7.27658667,3.94624 3.85642667,7.36149333 3.85642667,11.5639467 C3.85642667,15.7666133 7.27658667,19.18656 11.4798933,19.18656 L18.6474667,19.1861333 C19.0478933,19.1861333 19.37024,18.79168 19.37024,18.46592 L19.37024,4.352 C19.37024,3.57354667 19.8583467,2.91733333 20.5851733,2.71936 C21.2046933,2.5504 22.0733867,2.72149333 22.65408,3.70901333 C22.68096,3.75424 24.4418133,6.78698667 27.1261867,11.40992 C29.2334933,15.04256 31.4129067,18.7976533 31.4519467,18.8648533 C31.67744,19.2475733 31.98656,19.42848 32.2805333,19.3486933 C32.46528,19.2983467 32.6824533,19.11936 32.6824533,18.7797333 L32.6824533,4.352 C32.6833067,3.57248 33.16864,2.91605333 33.8929067,2.71872 C34.50816,2.55125333 35.3730133,2.72298667 35.95264,3.70901333 C35.9790933,3.75168 37.53536,6.43413333 40.0968533,10.84608 C42.36224,14.7515733 44.70464,18.7893333 44.7488,18.8642133 C44.9742933,19.2475733 45.2846933,19.42848 45.5773867,19.3486933 C45.76256,19.2983467 45.9797333,19.11936 45.9797333,18.78016 L45.9797333,0.000853333333 L43.2155733,0.000853333333 L43.2155733,11.2136533 C43.2155733,11.2136533 38.5998933,3.26677333 38.38784,2.90666667 C35.45728,-2.07125333 29.9191467,-0.01408 29.9191467,4.27114667 L29.9191467,11.2136533 C29.9191467,11.2136533 25.30112,3.26677333 25.0884267,2.90666667 C22.1582933,-2.07125333 16.6210133,-0.01408 16.6199467,4.27114667 L16.6199467,15.65376 C16.6216533,16.06784 16.3104,16.4290133 15.8570667,16.4292267 L11.5099733,16.4292267 C8.82261333,16.42944 6.64384,14.2510933 6.64384,11.5633067" id="Shape"></path>
                            <path d="M47.0818133,0 L47.0818133,18.6935467 C47.0818133,19.4717867 46.5937067,20.12864 45.86752,20.3264 C45.7339733,20.36224 45.5886933,20.38336 45.4370133,20.38336 C44.8861867,20.38336 44.2538667,20.11136 43.79776,19.3371733 C43.7736533,19.2951467 41.9392,16.1326933 39.1434667,11.3130667 C37.1264,7.83765333 35.04128,4.24746667 35.00288,4.18133333 C34.7773867,3.79904 34.4714667,3.61728 34.1821867,3.69621333 C33.9991467,3.74656 33.7847467,3.92554667 33.7847467,4.26602667 L33.7847467,18.6935467 C33.7847467,19.4717867 33.29664,20.12864 32.57088,20.3264 C31.9509333,20.4945067 31.0820267,20.3242667 30.5015467,19.33696 C30.4776533,19.2968533 28.77248,16.35776 26.17152,11.8760533 C23.9953067,8.12522667 21.74464,4.24981333 21.7038933,4.18112 C21.4781867,3.7984 21.1682133,3.61706667 20.8753067,3.69685333 C20.6901333,3.74698667 20.4736,3.92618667 20.4736,4.26517333 L20.4731733,18.3784533 C20.4731733,19.3499733 19.61984,20.2024533 18.6474667,20.2024533 L11.4798933,20.2024533 C6.66794667,20.2024533 2.75392,16.2884267 2.75392,11.4773333 C2.75392,6.66858667 6.66794667,2.75669333 11.4798933,2.75669333 L15.20256,2.75669333 L15.20256,0 L11.4830933,0 C5.14154667,0 0,5.14069333 0,11.4775467 C0,17.8184533 5.14133333,22.9591467 11.48288,22.9591467 L18.7202133,22.9591467 C21.4709333,22.96128 23.2401067,21.34912 23.23712,18.37568 L23.23712,11.8267733 C23.23712,11.8267733 27.8545067,19.7794133 28.0676267,20.1390933 C30.9973333,25.1176533 36.5354667,23.05984 36.5354667,18.7744 L36.5354667,11.8267733 C36.5354667,11.8267733 41.152,19.7794133 41.3632,20.1390933 C44.2939733,25.1176533 49.8321067,23.05984 49.8325333,18.7744 L49.8325333,0 L47.0818133,0 Z" id="Shape"></path>
                        </g>
                        <polygon id="Shape" fill="#FFFFFF" fill-rule="nonzero" points="8.54208 50.3690667 7.40736 50.3690667 7.40736 41.20128 8.54208 41.20128"></polygon>
                        <path d="M15.4365867,50.3690667 L14.3554133,50.3690667 L14.3554133,46.4196267 C14.35584,45.6938667 14.3562667,45.16992 14.0232533,44.83648 C13.8274133,44.6402133 13.48224,44.5181867 13.1232,44.5181867 C12.3876267,44.5181867 11.5758933,44.9154133 11.3051733,45.0786133 L11.3051733,50.3690667 L10.22336,50.3690667 L10.22336,43.6891733 L11.2654933,43.6891733 L11.2654933,44.05504 C11.6238933,43.86496 12.3793067,43.5304533 13.2296533,43.5304533 C13.6049067,43.5304533 14.30912,43.6049067 14.8091733,44.1038933 C15.3418667,44.6370133 15.4365867,45.1626667 15.4365867,46.37568 L15.4365867,50.3690667 Z" id="Shape" fill="#FFFFFF" fill-rule="nonzero"></path>
                        <path d="M19.40608,50.5026133 C17.6405333,50.5026133 16.4533333,49.15008 16.4533333,47.13728 C16.4533333,45.0135467 17.80416,43.5310933 19.73888,43.5310933 C20.33984,43.5310933 20.7938133,43.6840533 21.0517333,43.79968 L21.0517333,41.2053333 L22.14656,41.2053333 L22.14656,50.3688533 L21.1310933,50.3688533 L21.1310933,50.0119467 C20.7899733,50.2186667 20.1787733,50.5026133 19.40608,50.5026133 Z M19.7390933,44.5179733 C18.4360533,44.5179733 17.5611733,45.5810133 17.5611733,47.1626667 C17.5611733,48.5469867 18.3534933,49.51488 19.4865067,49.51488 C20.2912,49.51488 20.79744,49.1426133 21.0408533,48.9640533 L21.0519467,48.9565867 L21.0519467,44.8827733 C20.64448,44.6408533 20.2030933,44.5179733 19.7390933,44.5179733 Z" id="Shape" fill="#FFFFFF" fill-rule="nonzero"></path>
                        <path d="M26.0868267,50.5284267 C24.2440533,50.5284267 23.0530133,49.1556267 23.0530133,47.0301867 C23.0530133,44.90432 24.2696533,43.53088 26.1525333,43.53088 C27.9790933,43.53088 29.1594667,44.9250133 29.1594667,47.0826667 C29.15968,49.1758933 27.9530667,50.5284267 26.0868267,50.5284267 Z M26.1000533,44.5053867 C24.92224,44.5053867 24.1610667,45.48544 24.1610667,47.0030933 C24.1610667,48.4977067 24.9636267,49.5409067 26.11328,49.5409067 C27.32672,49.5409067 28.05184,48.6120533 28.05184,47.0555733 C28.05184,45.5778133 27.2311467,44.5053867 26.1000533,44.5053867 Z" id="Shape" fill="#FFFFFF" fill-rule="nonzero"></path>
                        <path d="M35.2725333,50.3688533 L34.1922133,50.3688533 L34.1922133,46.4170667 C34.1922133,45.6913067 34.1930667,45.1682133 33.86048,44.8366933 C33.66464,44.64 33.32032,44.5175467 32.9627733,44.5175467 C32.2299733,44.5175467 31.4178133,44.9147733 31.1470933,45.0788267 L31.1470933,50.3688533 L30.0667733,50.3688533 L30.0667733,43.69024 L31.1074133,43.69024 L31.1074133,44.0552533 C31.4673067,43.8651733 32.2208,43.5310933 33.06944,43.5310933 C33.4434133,43.5310933 34.14592,43.6055467 34.64512,44.10432 C35.1778133,44.6370133 35.2725333,45.1626667 35.2725333,46.37568 L35.2725333,50.3688533 Z" id="Shape" fill="#FFFFFF" fill-rule="nonzero"></path>
                        <path d="M39.38816,50.5026133 C37.5057067,50.5026133 36.28864,49.15456 36.28864,47.0692267 C36.28864,44.91904 37.4897067,43.5298133 39.34848,43.5298133 C40.9642667,43.5298133 42.0081067,44.7989333 42.0081067,46.76352 C42.0081067,46.7908267 41.9970133,47.3301333 41.9970133,47.3301333 L37.3992533,47.3301333 C37.45088,48.65472 38.2344533,49.4741333 39.4555733,49.4741333 C39.8741333,49.4741333 40.51584,49.3915733 41.1982933,48.9947733 L41.3589333,48.89472 L41.8638933,49.7431467 C41.86368,49.74336 40.93184,50.4590933 39.38816,50.5026133 Z M37.4357333,46.3682133 L40.9096533,46.3682133 C40.8661333,45.488 40.4388267,44.49152 39.3614933,44.49152 C38.3274667,44.49152 37.56096,45.24288 37.4357333,46.3682133 Z" id="Shape" fill="#FFFFFF" fill-rule="nonzero"></path>
                        <path d="M45.1652267,50.5288533 C43.9249067,50.5288533 42.9749333,49.9176533 42.8439467,49.7870933 L43.3175467,48.9482667 C43.3175467,48.9482667 44.22144,49.54176 45.11104,49.54176 C45.98272,49.54176 46.5038933,49.1752533 46.5038933,48.5623467 C46.5038933,47.8747733 45.80544,47.6194133 45.1899733,47.39328 L45.1264,47.3700267 L44.9954133,47.3211733 L44.9472,47.3021867 C44.0132267,46.9344 43.1313067,46.58624 43.1313067,45.3506133 C43.1313067,44.27904 44.0661333,43.5313067 45.4043733,43.5313067 C46.68544,43.5313067 47.50784,44.18176 47.5131733,44.1877333 L47.07136,45.00992 L46.9307733,44.9297067 C46.4497067,44.65216 45.9451733,44.50496 45.472,44.50496 C44.85952,44.50496 44.2395733,44.7863467 44.2395733,45.3243733 C44.2395733,45.8993067 44.6877867,46.0757333 45.3066667,46.32 L45.39136,46.3530667 L45.5236267,46.4055467 L45.6925867,46.4721067 C46.5489067,46.8081067 47.6119467,47.2260267 47.6119467,48.48192 C47.61216,49.7448533 46.6741333,50.5288533 45.1652267,50.5288533 Z" id="Shape" fill="#FFFFFF" fill-rule="nonzero"></path>
                        <polygon id="Shape" fill="#FFFFFF" fill-rule="nonzero" points="50.01344 50.3694933 48.93248 50.3694933 48.93248 43.6893867 50.01344 43.6893867"></polygon>
                        <path d="M51.48608,44.2589867 C51.6968533,44.0849067 52.5476267,43.51616 53.8510933,43.51616 C54.6333867,43.51616 55.2494933,43.73696 55.6829867,44.1704533 C56.1550933,44.6423467 56.2314667,45.1285333 56.2314667,46.1098667 L56.2314667,50.3688533 L55.21536,50.3688533 L55.21536,49.9933867 C54.6148267,50.3223467 53.9445333,50.5028267 53.31776,50.5028267 C52.0055467,50.5028267 51.1234133,49.664 51.1234133,48.41536 C51.1234133,46.18176 54.0096,46.18176 54.95744,46.18176 L55.1485867,46.18176 L55.1485867,46.08384 C55.1485867,45.52384 55.12832,45.1061333 54.8689067,44.8347733 C54.6510933,44.6165333 54.2769067,44.5056 53.7572267,44.5056 C53.3512533,44.5056 52.5856,44.70336 51.9351467,45.0935467 L51.48608,44.2589867 Z M54.93184,47.1168 C53.1406933,47.1168 52.2331733,47.5581867 52.2331733,48.4296533 C52.2331733,49.1086933 52.7086933,49.5144533 53.504,49.5144533 C54.2082133,49.5144533 54.8904533,49.1761067 55.1488,49.0474667 L55.1488,47.1168 L54.93184,47.1168 Z" id="Shape" fill="#FFFFFF" fill-rule="nonzero"></path>
                        <path d="M49.47392,42.60864 C49.0660267,42.60864 48.7342933,42.27648 48.7342933,41.86816 C48.7342933,41.4602667 49.0660267,41.12768 49.47392,41.12768 C49.88224,41.12768 50.2148267,41.4602667 50.2148267,41.86816 C50.2148267,42.27648 49.88224,42.60864 49.47392,42.60864 Z" id="Shape" fill="#FFFFFF" fill-rule="nonzero"></path>
                    </g>
                </g>
            </g>
        </g>
    </g>
</svg>