<?xml version="1.0" encoding="UTF-8"?>
<svg width="150px" height="80px" viewBox="0 0 150 80" version="1.1" xmlns="http://www.w3.org/2000/svg" xmlns:xlink="http://www.w3.org/1999/xlink">
    <!-- Generator: Sketch 48.2 (47327) - http://www.bohemiancoding.com/sketch -->
    <title>7</title>
    <desc>Created with Sketch.</desc>
    <defs></defs>
    <g id="01-home" stroke="none" stroke-width="1" fill="none" fill-rule="evenodd" transform="translate(-1155.000000, -4309.000000)">
        <g id="News" transform="translate(135.000000, 4185.000000)">
            <g id="7" transform="translate(1020.000000, 124.000000)">
                <rect id="bound" fill="#FFFFFF" x="0" y="0" width="150" height="80"></rect>
                <g id="Logo/News/BI-active" transform="translate(0.000000, 28.000000)" fill="#000000">
                    <g id="Bisnis_Indonesia_logo">
                        <polygon id="path15507" fill-rule="nonzero" points="11.1160848 19.179625 11.4150431 19.179625 11.4150431 6.1306595 11.1160848 6.1306595"></polygon>
                        <g id="g15517" transform="translate(20.312918, 7.296522) scale(-1, 1) rotate(-180.000000) translate(-20.312918, -7.296522) translate(18.229585, 4.710315)" fill-rule="nonzero">
                            <path d="M4.16666667,3.10344828 C3.16458333,2.27586207 3.040625,2.13724138 2.29375,1.03241379 C1.54270833,2.13724138 1.41875,2.27586207 0.417708333,3.10344828 C1.41875,3.93 1.54270833,4.06758621 2.29375,5.17241379 C3.04270833,4.06758621 3.16458333,3.93 4.16666667,3.10344828" id="path15519"></path>
                        </g>
                        <g id="g15521" transform="translate(20.428643, 14.839448) scale(-1, 1) rotate(-180.000000) translate(-20.428643, -14.839448) translate(18.345310, 8.115311)" fill-rule="nonzero">
                            <path d="M4.16666667,2.06896552 C3.978125,2.19310345 3.85520833,2.34931034 3.771875,2.50344828 C3.70520833,2.60172414 3.66979167,2.73724138 3.64479167,2.86448276 C3.60104167,3.07965517 3.62291667,3.24413793 3.62291667,3.24413793 L3.62291667,12.4758621 L0.361458333,9.75827586 C0.680208333,9.42517241 0.726041667,9.01655172 0.729166667,8.85827586 C0.732291667,8.81689655 0.729166667,8.79 0.729166667,8.79 L0.729166667,2.97103448 C0.729166667,1.18862069 1.99791667,0.261724138 1.99791667,0.261724138 L4.16666667,2.06896552 Z" id="path15523"></path>
                        </g>
                        <g id="g15525" transform="translate(44.624893, 7.296522) scale(-1, 1) rotate(-180.000000) translate(-44.624893, -7.296522) translate(42.541560, 4.710315)" fill-rule="nonzero">
                            <path d="M4.16666667,3.10344828 C3.16875,2.27586207 3.04270833,2.13724138 2.29166667,1.03241379 C1.54479167,2.13724138 1.41875,2.27586207 0.416666667,3.10344828 C1.41875,3.93 1.54479167,4.06758621 2.29166667,5.17241379 C3.04270833,4.06758621 3.16875,3.93 4.16666667,3.10344828" id="path15527"></path>
                        </g>
                        <g id="g15529" transform="translate(44.740726, 14.839448) scale(-1, 1) rotate(-180.000000) translate(-44.740726, -14.839448) translate(42.657393, 8.115311)" fill-rule="nonzero">
                            <path d="M4.16666667,2.06896552 C3.98125,2.19310345 3.85520833,2.34931034 3.77291667,2.50344828 C3.70520833,2.60172414 3.66666667,2.73724138 3.646875,2.86448276 C3.60625,3.07965517 3.62083333,3.24413793 3.62083333,3.24413793 L3.62083333,12.4758621 L0.361458333,9.75827586 C0.679166667,9.42517241 0.726041667,9.01655172 0.732291667,8.85827586 C0.733333333,8.81689655 0.732291667,8.79 0.732291667,8.79 L0.732291667,2.97103448 C0.732291667,1.18862069 2,0.261724138 2,0.261724138 L4.16666667,2.06896552 Z" id="path15531"></path>
                        </g>
                        <g id="g15533" transform="translate(27.790518, 15.428276) scale(-1, 1) rotate(-180.000000) translate(-27.790518, -15.428276) translate(23.623851, 9.221380)" fill-rule="nonzero">
                            <path d="M3.125,10.3448276 C3.125,10.3448276 3.346875,9.39931034 4.60520833,9.39931034 C4.60520833,9.39931034 5.33854167,9.37137931 6.13645833,10.1710345 L7.56145833,11.5903448 C6.89895833,11.247931 6.25416667,11.2313793 5.82291667,11.2810345 C5.69895833,11.2903448 5.51979167,11.3162069 5.31041667,11.3896552 C5.29895833,11.3927586 5.28958333,11.3958621 5.28958333,11.3958621 L5.29166667,11.3958621 C4.9375,11.5231034 4.51458333,11.7837931 4.18229167,12.33 L1.36458333,9.97655172 C1.36458333,9.97655172 0.671875,9.35275862 0.671875,8.29758621 C0.671875,8.29758621 0.561458333,6.47896552 2.91354167,5.35241379 C2.91354167,5.35241379 4.21770833,4.73275862 5.00625,4.18965517 C5.00625,4.18965517 5.521875,3.85137931 5.521875,3.27931034 C5.521875,3.27931034 5.559375,2.40724138 4.55833333,2.40724138 C4.55833333,2.40724138 2.93125,2.31517241 2.88645833,4.71517241 L0.266666667,2.55931034 C0.266666667,2.55931034 0.875,0.349655172 2.96770833,0.349655172 C2.96770833,0.349655172 5.10104167,0.290689655 6.73541667,2.49724138 C6.73541667,2.49724138 7.55,3.55137931 7.55,4.59517241 C7.55,4.59517241 7.68958333,6.38896552 5.29791667,7.43172414 C5.29791667,7.43172414 4.25520833,7.85172414 3.30729167,8.5262069 C3.30729167,8.5262069 2.709375,8.88 2.709375,9.54413793 C2.709375,9.54413793 2.646875,9.9362069 3.125,10.3448276" id="path15535"></path>
                        </g>
                        <g id="g15537" transform="translate(52.154060, 15.428276) scale(-1, 1) rotate(-180.000000) translate(-52.154060, -15.428276) translate(47.987393, 9.221380)" fill-rule="nonzero">
                            <path d="M3.125,10.3448276 C3.125,10.3448276 3.346875,9.39931034 4.60520833,9.39931034 C4.60520833,9.39931034 5.33958333,9.37137931 6.140625,10.1710345 L7.5625,11.5903448 C6.89895833,11.247931 6.25520833,11.2313793 5.825,11.2810345 C5.69895833,11.2903448 5.52083333,11.3162069 5.31145833,11.3896552 C5.3,11.3927586 5.29166667,11.3958621 5.29166667,11.3958621 C4.93854167,11.5231034 4.51354167,11.7837931 4.184375,12.33 L1.36458333,9.97655172 C1.36458333,9.97655172 0.671875,9.35275862 0.671875,8.29758621 C0.671875,8.29758621 0.561458333,6.47896552 2.91666667,5.35241379 C2.91666667,5.35241379 4.21875,4.73275862 5.009375,4.18965517 C5.009375,4.18965517 5.52395833,3.85137931 5.52395833,3.27931034 C5.52395833,3.27931034 5.559375,2.40724138 4.55833333,2.40724138 C4.55833333,2.40724138 2.93229167,2.31517241 2.88645833,4.71517241 L0.270833333,2.55931034 C0.270833333,2.55931034 0.875,0.349655172 2.96875,0.349655172 C2.96875,0.349655172 5.1,0.290689655 6.73541667,2.49724138 C6.73541667,2.49724138 7.55208333,3.55137931 7.55208333,4.59517241 C7.55208333,4.59517241 7.68958333,6.38896552 5.29583333,7.43172414 C5.29583333,7.43172414 4.25520833,7.85172414 3.31041667,8.5262069 C3.31041667,8.5262069 2.71354167,8.88 2.71354167,9.54413793 C2.71354167,9.54413793 2.64791667,9.9362069 3.125,10.3448276" id="path15539"></path>
                        </g>
                        <g id="g15541" transform="translate(3.273335, 12.065487) scale(-1, 1) rotate(-180.000000) translate(-3.273335, -12.065487) translate(1.190001, 8.962039)" fill-rule="nonzero">
                            <path d="M3.125,5.17241379 C3.125,5.17241379 3.03333333,5.18586207 2.89166667,5.18586207 C2.41145833,5.18586207 0.844791667,5.01 0.844791667,2.74758621 C0.846875,2.7062069 0.888541667,1.71206897 1.23333333,0.814137931 L1.36666667,0.472758621 L1.42708333,0.832758621 C1.43541667,0.88137931 1.64375,2.03275862 2.75416667,2.03275862 C2.84895833,2.03275862 2.95104167,2.02448276 3.05520833,2.00689655 L3.17083333,1.98724138 L3.21354167,5.16 L3.125,5.17241379 Z" id="path15543"></path>
                        </g>
                        <polygon id="path15547" fill-rule="nonzero" points="11.9153514 5.9799395 11.2851431 6.6037326 10.6580598 5.9799395 11.2851431 5.35407743"></polygon>
                        <g id="g15557" transform="translate(36.257601, 14.909073) scale(-1, 1) rotate(-180.000000) translate(-36.257601, -14.909073) translate(31.570101, 8.184935)" fill-rule="nonzero">
                            <path d="M8.33333333,11.3793103 L7.17604167,12.5337931 L4.36458333,10.2155172 C4.36458333,11.9782759 3.3625,12.5431034 3.3625,12.5431034 L0.972916667,10.5972414 C1.23541667,10.3013793 1.3125,9.98586207 1.33541667,9.79551724 C1.35208333,9.69413793 1.34270833,9.61137931 1.34270833,9.61137931 L1.34270833,3.19758621 C1.34270833,1.14827586 2.590625,0.343448276 2.590625,0.343448276 L4.85104167,2.17344828 C4.59791667,2.34517241 4.475,2.53862069 4.41458333,2.69275862 C4.37395833,2.77758621 4.359375,2.87172414 4.35625,2.92758621 C4.35416667,2.95965517 4.35416667,2.98034483 4.35416667,2.98034483 L4.35416667,9.45413793 C4.92916667,9.88965517 5.41979167,9.86586207 5.41979167,9.86586207 C6.46145833,9.86586207 6.43645833,9.02896552 6.43645833,9.02896552 L6.43645833,3.27103448 L6.43645833,0.0279310345 C6.43645833,0.0279310345 9.34166667,1.05931034 9.34166667,3.27103448 L9.34166667,8.97931034 C9.34166667,10.4068966 8.33333333,11.3793103 8.33333333,11.3793103" id="path15559"></path>
                        </g>
                        <g id="g15561" transform="translate(5.099685, 12.022453) scale(-1, 1) rotate(-180.000000) translate(-5.099685, -12.022453) translate(2.495518, 5.298315)" fill-rule="nonzero">
                            <path d="M4.16666667,11.3793103 C4.16666667,11.3793103 4.16666667,11.4372414 4.171875,11.5334483 C4.171875,11.5427586 4.17395833,11.5531034 4.17395833,11.5613793 C4.18645833,11.8748276 4.25,12.5244828 4.48020833,13.0251724 C3.21666667,12.2162069 2.21666667,11.192069 2.20625,11.1806897 C1.48125,10.4358621 1.51041667,9.61965517 1.51458333,9.58965517 L1.51458333,1.97896552 C1.51458333,0.841034483 1.07916667,0.381724138 1.06979167,0.374482759 L0.740625,0.0455172414 L1.17916667,0.21 C4.27395833,1.37793103 4.16875,3.94965517 4.16666667,3.96931034 L4.16666667,11.3793103 Z" id="path15563"></path>
                        </g>
                        <g id="g15565" transform="translate(9.715726, 11.128660) scale(-1, 1) rotate(-180.000000) translate(-9.715726, -11.128660) translate(1.903226, 0.783832)" fill-rule="nonzero">
                            <path d="M10.4166667,11.3793103 L10.3447917,11.3793103 C13.68125,13.5537931 13.6489583,16.5382759 13.6489583,16.5672414 C13.6489583,19.9272414 11.021875,19.9655172 10.9947917,19.9655172 C9.815625,19.9655172 9.1125,19.2537931 9.08958333,19.23 L6.29583333,16.7855172 C5.38333333,15.7489655 5.51145833,14.6162069 5.515625,14.5810345 L5.515625,6.81 C5.515625,5.20758621 4.90104167,4.60551724 4.896875,4.60137931 L4.56354167,4.28896552 L4.996875,4.4337931 C8.28854167,5.52827586 8.18958333,8.31 8.18958333,8.33275862 L8.18958333,16.4782759 C8.18958333,17.2675862 8.40416667,17.8468966 8.81041667,18.1562069 C9.12083333,18.3931034 9.434375,18.3951724 9.44895833,18.3951724 C9.759375,18.3951724 10.0302083,18.2813793 10.2541667,18.0568966 C11.0375,17.2758621 11.0354167,15.4127586 11.0354167,15.3931034 C11.0354167,11.9048276 9.35833333,11.3451724 9.34270833,11.3389655 L9.27083333,11.3182759 L9.27083333,10.9055172 L9.365625,10.8982759 C12.2614583,10.68 12.2614583,7.48034483 12.2614583,7.3437931 C12.2614583,3.87310345 10.246875,2.87586207 9.91979167,2.7362069 C8.68229167,3.55241379 7.446875,3.96413793 6.24166667,3.96413793 C3.35,3.96413793 1.36770833,1.56827586 0.652083333,0.543103448 C1.49166667,0.935172414 2.27395833,1.12448276 2.8375,1.21758621 C3.03854167,1.25689655 3.240625,1.27862069 3.44479167,1.28896552 C3.60625,1.30241379 3.69895833,1.30344828 3.69895833,1.30344828 C4.38229167,1.30344828 5.0875,1.14517241 5.80208333,0.837931034 L5.82604167,0.826551724 C6.23229167,0.634137931 6.73125,0.537931034 7.3125,0.537931034 C9.01354167,0.537931034 10.8541667,1.34689655 10.9270833,1.38103448 C13.9958333,2.61931034 14.9041667,5.2562069 14.9125,5.2862069 C14.934375,5.35551724 14.946875,5.39793103 14.946875,5.40206897 C15.2291667,6.39206897 15.2322917,7.34275862 15.2322917,7.38103448 C15.2322917,11.0906897 11.5489583,11.3793103 10.4166667,11.3793103" id="path15567"></path>
                        </g>
                        <g id="g15569" transform="translate(5.551043, 3.093104) scale(-1, 1) rotate(-180.000000) translate(-5.551043, -3.093104) translate(0.863543, 0.506897)" fill-rule="nonzero">
                            <path d="M7.29166667,3.10344828 C7.2,3.08482759 7.103125,3.07448276 7.00416667,3.06931034 C6.959375,3.06517241 6.92916667,3.06517241 6.92916667,3.06517241 C6.92916667,3.06517241 6.91145833,3.06310345 6.89270833,3.06310345 C6.78541667,3.06310345 6.38229167,3.10034483 5.70416667,3.57931034 C5.659375,3.61344828 4.575,4.43586207 3.71354167,4.43586207 C3.71354167,4.43586207 3.69375,4.43793103 3.65729167,4.43793103 C3.365625,4.43793103 2.35833333,4.36241379 1.484375,3.39206897 C1.45416667,3.35793103 0.797916667,2.54793103 0.414583333,1.55689655 L0.386458333,1.48862069 C1.27604167,2.14034483 1.98333333,2.08655172 1.98333333,2.08655172 C1.98333333,2.08655172 2.58645833,2.08137931 3.203125,1.5962069 C3.23958333,1.56517241 4.13854167,0.831724138 4.97604167,0.831724138 C4.97604167,0.831724138 5.01770833,0.825517241 5.09375,0.825517241 C5.54791667,0.825517241 7.13958333,1.03034483 8.64791667,3.62172414 C8.15208333,3.29172414 7.62916667,3.1562069 7.29166667,3.10344828" id="path15571"></path>
                        </g>
                        <g id="g15573" transform="translate(135.682185, 7.296522) scale(-1, 1) rotate(-180.000000) translate(-135.682185, -7.296522) translate(133.598851, 4.710315)" fill-rule="nonzero">
                            <path d="M4.16666667,3.10344828 C3.16770833,2.27586207 3.04270833,2.13724138 2.29270833,1.03241379 C1.54166667,2.13724138 1.415625,2.27586207 0.417708333,3.10344828 C1.415625,3.93 1.54166667,4.06758621 2.29270833,5.17241379 C3.04270833,4.06758621 3.16770833,3.93 4.16666667,3.10344828" id="path15575"></path>
                        </g>
                        <g id="g15577" transform="translate(135.798435, 14.839448) scale(-1, 1) rotate(-180.000000) translate(-135.798435, -14.839448) translate(133.715101, 8.115311)" fill-rule="nonzero">
                            <path d="M4.16666667,2.06896552 C3.978125,2.19310345 3.853125,2.34931034 3.77083333,2.50344828 C3.70520833,2.60172414 3.665625,2.73724138 3.64583333,2.86448276 C3.603125,3.07965517 3.621875,3.24413793 3.621875,3.24413793 L3.621875,12.4758621 L0.360416667,9.75827586 C0.677083333,9.42517241 0.725,9.01655172 0.73125,8.85827586 C0.733333333,8.81689655 0.73125,8.79 0.73125,8.79 L0.73125,2.97103448 C0.73125,1.18862069 1.99791667,0.261724138 1.99791667,0.261724138 L4.16666667,2.06896552 Z" id="path15579"></path>
                        </g>
                        <g id="g15581" transform="translate(129.240418, 15.428276) scale(-1, 1) rotate(-180.000000) translate(-129.240418, -15.428276) translate(125.073751, 9.221380)" fill-rule="nonzero">
                            <path d="M3.125,10.3448276 C3.125,10.3448276 3.34583333,9.39931034 4.603125,9.39931034 C4.603125,9.39931034 5.33854167,9.37137931 6.1375,10.1710345 L7.5625,11.5903448 C6.9,11.247931 6.25520833,11.2313793 5.82291667,11.2810345 C5.7,11.2903448 5.51875,11.3162069 5.30833333,11.3896552 C5.3,11.3927586 5.290625,11.3958621 5.290625,11.3958621 C4.93854167,11.5231034 4.51354167,11.7837931 4.18229167,12.33 L1.365625,9.97655172 C1.365625,9.97655172 0.672916667,9.35275862 0.672916667,8.29758621 C0.672916667,8.29758621 0.5625,6.47896552 2.91458333,5.35241379 C2.91458333,5.35241379 4.21875,4.73275862 5.00729167,4.18965517 C5.00729167,4.18965517 5.52395833,3.85137931 5.52395833,3.27931034 C5.52395833,3.27931034 5.56145833,2.40724138 4.56041667,2.40724138 C4.56041667,2.40724138 2.93229167,2.31517241 2.88645833,4.71517241 L0.267708333,2.55931034 C0.267708333,2.55931034 0.872916667,0.349655172 2.96875,0.349655172 C2.96875,0.349655172 5.1,0.290689655 6.73645833,2.49724138 C6.73645833,2.49724138 7.55,3.55137931 7.55,4.59517241 C7.55,4.59517241 7.690625,6.38896552 5.29791667,7.43172414 C5.29791667,7.43172414 4.25625,7.85172414 3.309375,8.5262069 C3.309375,8.5262069 2.71145833,8.88 2.71145833,9.54413793 C2.71145833,9.54413793 2.64791667,9.9362069 3.125,10.3448276" id="path15583"></path>
                        </g>
                        <g id="g15585" transform="translate(90.492710, 12.913862) scale(-1, 1) rotate(-180.000000) translate(-90.492710, -12.913862) translate(85.284376, 3.603517)" fill-rule="nonzero">
                            <path d="M9.375,3.10344828 C9.315625,3.22655172 9.32083333,3.35896552 9.32083333,3.35896552 L9.32083333,15.7251724 C9.32083333,17.4341379 8.45,17.9731034 8.45,17.9731034 L5.97708333,16.0096552 C6.49895833,15.597931 6.44895833,15.15 6.44895833,15.15 L6.44895833,11.7434483 C5.984375,12.3724138 4.86875,13.0634483 4.86875,13.0634483 L0.719791667,9.63413793 C1.05625,9.33724138 1.015625,9.06931034 1.015625,9.06931034 L1.015625,4.83103448 C1.015625,2.10413793 3.56145833,0.812068966 3.56145833,0.812068966 L6.4375,3.15827586 C6.4375,1.7637931 7.684375,0.79862069 7.684375,0.79862069 L9.784375,2.50655172 C9.54479167,2.72068966 9.43020833,2.94 9.375,3.10344828 M5.1375,3.37758621 C3.88333333,3.37758621 3.91354167,4.53 3.91354167,4.53 L3.91354167,10.47 L4.071875,10.6272414 C5.1375,9.9237931 5.859375,8.91724138 5.859375,8.91724138 C6.42291667,8.17758621 6.4375,7.28068966 6.4375,7.28068966 L6.4375,3.99931034 C5.75625,3.3362069 5.1375,3.37758621 5.1375,3.37758621" id="path15587"></path>
                        </g>
                        <g id="g15589" transform="translate(100.726351, 15.088759) scale(-1, 1) rotate(-180.000000) translate(-100.726351, -15.088759) translate(96.038851, 8.364621)" fill-rule="nonzero">
                            <path d="M7.29166667,11.3793103 L5.05208333,12.7675862 L0.739583333,9.21517241 C0.9125,9.06 0.95625,8.84482759 0.966666667,8.73413793 L0.966666667,8.73310345 C0.972916667,8.69275862 0.972916667,8.6637931 0.972916667,8.6637931 L0.972916667,4.56517241 C0.972916667,4.56517241 0.802083333,2.78275862 2.50416667,1.83827586 C2.50416667,1.83827586 3.71770833,1.12241379 4.83020833,0.395172414 L8.26145833,3.24517241 C8.26145833,3.24517241 8.89583333,3.77793103 8.89583333,5.00172414 L8.89583333,8.7237931 C8.89583333,8.7237931 8.98333333,10.3727586 7.29166667,11.3793103 M5.75729167,2.47551724 C5.75729167,2.47551724 4.96041667,2.75586207 4.2875,3.49344828 C4.2875,3.49344828 3.83645833,3.8937931 3.83645833,4.88482759 L3.83645833,9.82241379 C3.83645833,9.82241379 3.80208333,10.2662069 4.14270833,10.5941379 L5.34583333,9.74896552 C5.34583333,9.74896552 5.97916667,9.28448276 5.97916667,8.52103448 L5.97916667,3.38482759 C5.97916667,3.38482759 6.02395833,2.80137931 5.75729167,2.47551724" id="path15591"></path>
                        </g>
                        <g id="g15593" transform="translate(143.746560, 15.319556) scale(-1, 1) rotate(-180.000000) translate(-143.746560, -15.319556) translate(138.538226, 8.595418)" fill-rule="nonzero">
                            <path d="M9.375,3.10344828 C9.32708333,3.17586207 9.28645833,3.28551724 9.26354167,3.44689655 C9.24375,3.57413793 9.25104167,3.66 9.25104167,3.66 L9.25104167,9.9062069 C9.25104167,9.9062069 9.296875,12.0165517 7.35104167,13.0882759 C7.35104167,13.0882759 4.49479167,13.0406897 1.86354167,10.5548276 L1.86354167,9.51310345 C1.86354167,9.51310345 3.08645833,11.0275862 4.76458333,11.6213793 C4.76458333,11.6213793 6.40625,11.3306897 6.40625,9.25862069 L6.40625,8.71965517 L3.49166667,7.79793103 C3.49166667,7.79793103 0.827083333,7.06965517 0.827083333,4.57862069 C0.827083333,4.57862069 0.809375,2.01413793 3.63958333,0.867931034 L6.40625,3.0962069 C6.46979167,2.41758621 6.73333333,1.46896552 7.60520833,0.831724138 L9.77291667,2.64310345 C9.57291667,2.7837931 9.45104167,2.94931034 9.375,3.10344828 Z M6.40625,3.92793103 C6.11458333,3.65172414 5.53020833,3.17896552 4.90729167,3.17896552 C4.90729167,3.17896552 3.93020833,3.06827586 3.93020833,4.32310345 L3.93020833,6.13137931 C3.93020833,6.13137931 3.91875,7.00344828 4.91145833,7.45137931 L6.40625,8.12586207 L6.40625,3.92793103 Z" id="path15595"></path>
                        </g>
                        <g id="g15597" transform="translate(66.535935, 11.677349) scale(-1, 1) rotate(-180.000000) translate(-66.535935, -11.677349) translate(64.973435, 8.573901)" fill-rule="nonzero">
                            <path d="M3.125,5.17241379 L3.03020833,5.17758621 C3.03020833,5.17758621 3.003125,5.17965517 2.946875,5.17965517 C2.5625,5.17965517 0.647916667,5.06482759 0.652083333,2.79206897 C0.652083333,2.74758621 0.707291667,1.7462069 1.06979167,0.976551724 L1.20833333,0.681724138 L1.25729167,1.00448276 C1.265625,1.04896552 1.44895833,2.11034483 2.57291667,2.11034483 C2.709375,2.11034483 2.853125,2.09482759 3.00520833,2.06275862 L3.125,2.04 L3.125,5.17241379 Z" id="path15599"></path>
                        </g>
                        <g id="g15601" transform="translate(79.317293, 14.909073) scale(-1, 1) rotate(-180.000000) translate(-79.317293, -14.909073) translate(74.629793, 8.184935)" fill-rule="nonzero">
                            <path d="M8.33333333,11.3793103 L7.17708333,12.5337931 L4.365625,10.2155172 C4.365625,11.9782759 3.36458333,12.5431034 3.36458333,12.5431034 L0.973958333,10.5972414 C1.2375,10.3013793 1.31666667,9.98586207 1.33854167,9.79551724 C1.35,9.69413793 1.34479167,9.61137931 1.34479167,9.61137931 L1.34479167,3.19758621 C1.34479167,1.14827586 2.59375,0.343448276 2.59375,0.343448276 L4.853125,2.17344828 C4.60104167,2.34517241 4.478125,2.53862069 4.415625,2.69275862 C4.37708333,2.77758621 4.36458333,2.87172414 4.35833333,2.92758621 C4.35729167,2.95965517 4.35729167,2.98034483 4.35729167,2.98034483 L4.35729167,9.45413793 C4.934375,9.88965517 5.42395833,9.86586207 5.42395833,9.86586207 C6.46354167,9.86586207 6.43854167,9.02896552 6.43854167,9.02896552 L6.43854167,3.27103448 L6.43854167,0.0279310345 C6.43854167,0.0279310345 9.34479167,1.05931034 9.34479167,3.27103448 L9.34479167,8.97931034 C9.34479167,10.4068966 8.33333333,11.3793103 8.33333333,11.3793103" id="path15603"></path>
                        </g>
                        <g id="g15605" transform="translate(110.460210, 14.909073) scale(-1, 1) rotate(-180.000000) translate(-110.460210, -14.909073) translate(105.772710, 8.184935)" fill-rule="nonzero">
                            <path d="M8.33333333,11.3793103 L7.17708333,12.5337931 L4.36458333,10.2155172 C4.36458333,11.9782759 3.36458333,12.5431034 3.36458333,12.5431034 L0.972916667,10.5972414 C1.23541667,10.3013793 1.31458333,9.98586207 1.3375,9.79551724 C1.35104167,9.69413793 1.34479167,9.61137931 1.34479167,9.61137931 L1.34479167,3.19758621 C1.34479167,1.14827586 2.59375,0.343448276 2.59375,0.343448276 L4.85208333,2.17344828 C4.60104167,2.34517241 4.47604167,2.53862069 4.415625,2.69275862 C4.375,2.77758621 4.36041667,2.87172414 4.35833333,2.92758621 C4.35520833,2.95965517 4.35520833,2.98034483 4.35520833,2.98034483 L4.35520833,9.45413793 C4.92916667,9.88965517 5.41979167,9.86586207 5.41979167,9.86586207 C6.46145833,9.86586207 6.43854167,9.02896552 6.43854167,9.02896552 L6.43854167,3.27103448 L6.43854167,0.0279310345 C6.43854167,0.0279310345 9.34270833,1.05931034 9.34270833,3.27103448 L9.34270833,8.97931034 C9.34270833,10.4068966 8.33333333,11.3793103 8.33333333,11.3793103" id="path15607"></path>
                        </g>
                        <g id="g15609" transform="translate(120.754376, 15.275586) scale(-1, 1) rotate(-180.000000) translate(-120.754376, -15.275586) translate(116.587710, 8.551448)" fill-rule="nonzero">
                            <path d="M5.20833333,3.10344828 C3.953125,3.10344828 3.678125,3.95896552 3.62291667,4.46793103 C5.303125,5.53965517 6.59583333,6.87931034 6.59583333,6.87931034 C7.36770833,7.67172414 7.365625,8.66896552 7.365625,8.66896552 C7.365625,9.57206897 6.59270833,10.4141379 6.59270833,10.4141379 C5.465625,11.7 4.12395833,12.8089655 4.12395833,12.8089655 L0.544791667,9.99827586 C0.66875,9.8337931 0.708333333,9.65896552 0.719791667,9.55551724 C0.73125,9.50275862 0.727083333,9.46241379 0.727083333,9.46241379 L0.727083333,4.74103448 C0.727083333,3.22965517 1.51145833,2.37517241 1.51145833,2.37517241 C2.428125,1.29827586 3.61145833,0.580344828 3.61145833,0.580344828 L7.31666667,3.57103448 C6.57291667,3.23586207 5.77395833,3.14068966 5.41041667,3.11482759 C5.284375,3.09724138 5.20833333,3.10344828 5.20833333,3.10344828 Z M3.62083333,9.58965517 C5.09791667,8.51793103 5.03333333,7.30655172 5.03333333,7.30655172 C5.03333333,6.22448276 4.04583333,5.47034483 3.62083333,5.19517241 L3.62083333,9.58965517 Z" id="path15611"></path>
                        </g>
                        <g id="g15613" transform="translate(69.011768, 3.093104) scale(-1, 1) rotate(-180.000000) translate(-69.011768, -3.093104) translate(64.324268, 0.506897)" fill-rule="nonzero">
                            <path d="M7.29166667,3.10344828 C7.20208333,3.08482759 7.10625,3.07448276 7.00625,3.06931034 C6.95833333,3.06517241 6.928125,3.06517241 6.928125,3.06517241 C6.928125,3.06517241 6.915625,3.06310345 6.89375,3.06310345 C6.78541667,3.06310345 6.38020833,3.10034483 5.70416667,3.57931034 C5.65833333,3.61344828 4.575,4.43586207 3.71354167,4.43586207 C3.71354167,4.43586207 3.69375,4.43793103 3.659375,4.43793103 C3.36770833,4.43793103 2.359375,4.36241379 1.48125,3.39206897 C1.45729167,3.35793103 0.798958333,2.54793103 0.414583333,1.55689655 L0.389583333,1.48862069 C1.27604167,2.14034483 1.98333333,2.08655172 1.98333333,2.08655172 C1.9875,2.08655172 2.5875,2.08137931 3.203125,1.5962069 C3.240625,1.56517241 4.13958333,0.831724138 4.97604167,0.831724138 C4.97604167,0.831724138 5.01770833,0.825517241 5.09375,0.825517241 C5.55,0.825517241 7.13958333,1.03034483 8.646875,3.62172414 C8.15208333,3.29172414 7.62916667,3.1562069 7.29166667,3.10344828" id="path15615"></path>
                        </g>
                        <g id="g15617" transform="translate(68.759476, 11.531173) scale(-1, 1) rotate(-180.000000) translate(-68.759476, -11.531173) translate(66.155310, 5.324276)" fill-rule="nonzero">
                            <path d="M4.16666667,10.3448276 C4.16666667,10.5837931 4.18333333,10.7989655 4.209375,10.9893103 C4.24895833,11.3762069 4.321875,11.8696552 4.45729167,12.2865517 L4.45,12.2844828 C2.99166667,11.4444828 2.02604167,10.137931 2.01458333,10.1193103 C1.51770833,9.3662069 1.5375,8.42896552 1.5375,8.38965517 L1.5375,2.72068966 C1.5375,1.73482759 1.13333333,1.24241379 1.128125,1.23827586 L0.885416667,0.951724138 L1.23854167,1.08 C4.209375,2.15896552 4.16770833,4.55482759 4.16666667,4.57862069 L4.16666667,10.3448276 Z" id="path15619"></path>
                        </g>
                        <g id="g15621" transform="translate(69.082501, 11.379931) scale(-1, 1) rotate(-180.000000) translate(-69.082501, -11.379931) translate(62.311668, 1.035104)" fill-rule="nonzero">
                            <path d="M11.4583333,5.17241379 L11.4583333,15.8275862 C11.4583333,15.8275862 11.359375,18.237931 12.834375,19.9437931 C11.2052083,18.7862069 9.63125,17.2913793 9.61666667,17.2758621 C8.66979167,16.3593103 8.77604167,15.2431034 8.78020833,15.2068966 L8.78020833,4.02 C8.78020833,2.87793103 7.984375,2.54172414 7.946875,2.5262069 C7.76041667,2.44137931 7.571875,2.4 7.38125,2.4 C6.71145833,2.4 6.228125,2.92137931 6.225,2.92655172 L5.29583333,3.96931034 C4.353125,5.03586207 3.25833333,5.07 3.13229167,5.07 C2.46145833,5.07 1.89583333,4.8362069 1.446875,4.38 C0.4125,3.31862069 0.314583333,1.37689655 0.310416667,0.794482759 C0.8875,1.53413793 1.49583333,1.78137931 1.859375,1.86310345 C1.98229167,1.89 2.08229167,1.90137931 2.14895833,1.90241379 C2.17708333,1.90241379 2.19166667,1.90241379 2.19166667,1.90241379 C2.21145833,1.90241379 2.221875,1.90241379 2.23125,1.90137931 C2.91041667,1.90137931 3.34895833,1.52896552 3.3625,1.51965517 L3.81979167,1.1937931 C5.56354167,-0.0682758621 7.80625,0.82862069 8.33541667,1.06862069 C9.10416667,1.45137931 9.690625,1.88172414 10.084375,2.22206897 C10.240625,2.34517241 10.3885417,2.48482759 10.5302083,2.64724138 L10.8375,2.97827586 C11.603125,4.05310345 11.4614583,5.1237931 11.4583333,5.17241379" id="path15623"></path>
                        </g>
                    </g>
                </g>
            </g>
        </g>
    </g>
</svg>