<?xml version="1.0" encoding="UTF-8"?>
<svg width="150px" height="80px" viewBox="0 0 150 80" version="1.1" xmlns="http://www.w3.org/2000/svg" xmlns:xlink="http://www.w3.org/1999/xlink">
    <!-- Generator: Sketch 48.2 (47327) - http://www.bohemiancoding.com/sketch -->
    <title>4</title>
    <desc>Created with Sketch.</desc>
    <defs></defs>
    <g id="01-home" stroke="none" stroke-width="1" fill="none" fill-rule="evenodd" transform="translate(-645.000000, -4309.000000)">
        <g id="News" transform="translate(135.000000, 4185.000000)">
            <g id="4" transform="translate(510.000000, 124.000000)">
                <rect id="bound" fill="#FFFFFF" x="0" y="0" width="150" height="80"></rect>
                <g id="Logo/News/TechinAsia-active" transform="translate(0.000000, 26.000000)" fill="#D41F26">
                    <g id="TechinAsia">
                        <g id="Group" transform="translate(43.790850, 6.114943)" fill-rule="nonzero">
                            <polygon id="Shape" points="0.261437908 3.34712644 4.01960784 3.34712644 4.01960784 13.3885057 7.48366013 13.3885057 7.48366013 3.34712644 11.2418301 3.34712644 11.2418301 0.354022989 0.261437908 0.354022989"></polygon>
                            <polygon id="Shape" points="15.4248366 8.07816092 21.503268 8.07816092 21.503268 5.27816092 15.4248366 5.27816092 15.4248366 3.34712644 22.0261438 3.34712644 22.0261438 0.354022989 11.9607843 0.354022989 11.9607843 13.3885057 22.1895425 13.3885057 22.1895425 10.3954023 15.4248366 10.3954023"></polygon>
                            <path d="M31.7647059,8.23908046 C31.6666667,8.97931034 31.4052288,9.5908046 30.9803922,10.0413793 C30.5882353,10.4597701 30.0326797,10.6850575 29.2810458,10.6850575 C28.7254902,10.6850575 28.2679739,10.5885057 27.875817,10.3632184 C27.4836601,10.1701149 27.1895425,9.88045977 26.9607843,9.52643678 C26.7320261,9.17241379 26.5359477,8.75402299 26.4379085,8.33563218 C26.3071895,7.88505747 26.2745098,7.40229885 26.2745098,6.91954023 C26.2745098,6.4045977 26.3398693,5.92183908 26.4379085,5.43908046 C26.5359477,4.98850575 26.7320261,4.57011494 26.9607843,4.21609195 C27.1895425,3.86206897 27.5163399,3.6045977 27.875817,3.37931034 C28.2352941,3.1862069 28.7254902,3.05747126 29.2810458,3.05747126 C29.5751634,3.05747126 29.869281,3.12183908 30.130719,3.1862069 C30.3921569,3.28275862 30.6535948,3.41149425 30.8496732,3.57241379 C31.0784314,3.73333333 31.2418301,3.92643678 31.372549,4.15172414 C31.503268,4.37701149 31.6013072,4.60229885 31.6339869,4.85977011 L31.6666667,5.1816092 L35.0653595,5.1816092 L35.0326797,4.7954023 C34.9346405,4.02298851 34.7385621,3.34712644 34.379085,2.76781609 C34.0522876,2.18850575 33.5947712,1.67356322 33.0718954,1.28735632 C32.5490196,0.901149425 31.9607843,0.579310345 31.3071895,0.386206897 C30.6535948,0.193103448 29.9673203,0.0643678161 29.248366,0.0643678161 C28.2352941,0.0643678161 27.3202614,0.257471264 26.503268,0.611494253 C25.6862745,0.965517241 25,1.44827586 24.4444444,2.09195402 C23.8888889,2.70344828 23.4640523,3.44367816 23.1699346,4.28045977 C22.875817,5.11724138 22.745098,6.0183908 22.745098,6.95172414 C22.745098,7.88505747 22.9084967,8.75402299 23.1699346,9.5908046 C23.4640523,10.3954023 23.8888889,11.1356322 24.4444444,11.7471264 C25,12.3586207 25.6862745,12.8413793 26.503268,13.1954023 C27.3202614,13.5494253 28.2352941,13.7103448 29.248366,13.7103448 C30.0653595,13.7103448 30.8169935,13.5816092 31.503268,13.3563218 C32.1895425,13.0988506 32.8104575,12.7448276 33.3006536,12.2942529 C33.8235294,11.8436782 34.2156863,11.2643678 34.5424837,10.5885057 C34.8366013,9.94482759 35.0326797,9.2045977 35.130719,8.36781609 L35.1633987,7.9816092 L31.7647059,7.9816092 L31.7647059,8.23908046 Z" id="Shape"></path>
                            <polygon id="Shape" points="44.0849673 5.08505747 39.7712418 5.08505747 39.7712418 0.354022989 36.2745098 0.354022989 36.2745098 13.3885057 39.7712418 13.3885057 39.7712418 8.07816092 44.0849673 8.07816092 44.0849673 13.3885057 47.5816993 13.3885057 47.5816993 0.354022989 44.0849673 0.354022989"></polygon>
                            <rect id="Rectangle-path" x="49.7712418" y="0.708045977" width="1.17647059" height="12.3264368"></rect>
                            <polygon id="Shape" points="62.2222222 11.1356322 62.1895425 11.1356322 54.9019608 0.708045977 53.5620915 0.708045977 53.5620915 13.0344828 54.7385621 13.0344828 54.7385621 2.60689655 54.7712418 2.60689655 62.0588235 13.0344828 63.3986928 13.0344828 63.3986928 0.708045977 62.2222222 0.708045977"></polygon>
                            <path d="M69.0196078,0.354022989 L64.0196078,13.3885057 L67.5816993,13.3885057 L68.5620915,10.6528736 L72.7124183,10.6528736 L73.6601307,13.3885057 L77.2875817,13.3885057 L72.3529412,0.354022989 L69.0196078,0.354022989 Z M69.5098039,7.91724138 L70.620915,4.7954023 L71.6993464,7.91724138 L69.5098039,7.91724138 Z" id="Shape"></path>
                            <path d="M86.2745098,6.30804598 C85.8496732,6.0183908 85.3921569,5.82528736 84.9346405,5.69655172 C84.5098039,5.56781609 84.1830065,5.47126437 83.9542484,5.43908046 C83.1699346,5.24597701 82.5490196,5.08505747 82.0588235,4.95632184 C81.6013072,4.82758621 81.2418301,4.73103448 80.9803922,4.60229885 C80.7189542,4.47356322 80.620915,4.37701149 80.5882353,4.31264368 C80.5228758,4.21609195 80.4901961,4.08735632 80.4901961,3.92643678 C80.4901961,3.73333333 80.5228758,3.57241379 80.5882353,3.47586207 C80.6862745,3.34712644 80.7843137,3.25057471 80.9150327,3.15402299 C81.0457516,3.05747126 81.2091503,2.99310345 81.4052288,2.96091954 C81.6013072,2.92873563 81.7973856,2.89655172 81.9934641,2.89655172 C82.3202614,2.89655172 82.5816993,2.92873563 82.8431373,2.96091954 C83.0718954,3.02528736 83.3006536,3.08965517 83.496732,3.2183908 C83.6601307,3.31494253 83.7908497,3.47586207 83.9215686,3.66896552 C84.0196078,3.86206897 84.0849673,4.11954023 84.1176471,4.44137931 L84.1503268,4.76321839 L87.5163399,4.76321839 L87.5163399,4.4091954 C87.5163399,3.63678161 87.3529412,2.96091954 87.0588235,2.4137931 C86.7647059,1.86666667 86.3398693,1.41609195 85.8496732,1.06206897 C85.3594771,0.708045977 84.7712418,0.450574713 84.1176471,0.32183908 C83.496732,0.16091954 82.8431373,0.0965517241 82.1568627,0.0965517241 C81.5686275,0.0965517241 80.9803922,0.16091954 80.3921569,0.32183908 C79.8039216,0.482758621 79.248366,0.740229885 78.7581699,1.06206897 C78.2679739,1.41609195 77.875817,1.83448276 77.5816993,2.34942529 C77.2875817,2.86436782 77.124183,3.47586207 77.124183,4.18390805 C77.124183,4.7954023 77.254902,5.34252874 77.4836601,5.79310345 C77.7124183,6.24367816 78.0392157,6.59770115 78.4313725,6.88735632 C78.8235294,7.17701149 79.248366,7.40229885 79.7058824,7.5954023 C80.1633987,7.75632184 80.620915,7.91724138 81.1111111,8.0137931 C81.5686275,8.14252874 82.0261438,8.27126437 82.4836601,8.36781609 C82.9084967,8.46436782 83.3006536,8.59310345 83.627451,8.72183908 C83.9215686,8.85057471 84.1830065,8.97931034 84.3464052,9.17241379 C84.4771242,9.30114943 84.5751634,9.49425287 84.5751634,9.71954023 C84.5751634,9.94482759 84.5098039,10.137931 84.4117647,10.2666667 C84.2810458,10.4275862 84.1176471,10.5563218 83.9215686,10.6528736 C83.7254902,10.7494253 83.4640523,10.8137931 83.2352941,10.845977 C82.9738562,10.8781609 82.7124183,10.9103448 82.4836601,10.9103448 C82.1568627,10.9103448 81.8300654,10.8781609 81.5359477,10.7816092 C81.2418301,10.7172414 80.9803922,10.5885057 80.7843137,10.4275862 C80.5882353,10.2666667 80.4248366,10.1057471 80.2941176,9.84827586 C80.1633987,9.62298851 80.0980392,9.30114943 80.0980392,8.94712644 L80.0980392,8.59310345 L76.6993464,8.59310345 L76.6993464,8.94712644 C76.6993464,9.75172414 76.8300654,10.491954 77.1568627,11.0712644 C77.4836601,11.6827586 77.9084967,12.1655172 78.4640523,12.5517241 C78.9869281,12.937931 79.6078431,13.2275862 80.2941176,13.3885057 C80.9803922,13.5494253 81.6666667,13.645977 82.3856209,13.645977 C83.2679739,13.645977 84.0522876,13.5494253 84.7385621,13.3241379 C85.4248366,13.1310345 86.0130719,12.8091954 86.503268,12.4229885 C86.9934641,12.0367816 87.3529412,11.5862069 87.5816993,11.0390805 C87.8104575,10.5241379 87.9411765,9.94482759 87.9411765,9.33333333 C87.9411765,8.56091954 87.7777778,7.94942529 87.4183007,7.43448276 C87.124183,6.98390805 86.7320261,6.59770115 86.2745098,6.30804598 Z" id="Shape"></path>
                            <rect id="Rectangle-path" x="88.8562092" y="0.354022989" width="3.46405229" height="13.0344828"></rect>
                            <path d="M100.882353,0.354022989 L97.5490196,0.354022989 L92.5490196,13.3885057 L96.1111111,13.3885057 L97.0915033,10.6528736 L101.24183,10.6528736 L102.189542,13.3885057 L105.849673,13.3885057 L100.882353,0.354022989 Z M98.0718954,7.91724138 L99.1830065,4.7954023 L100.261438,7.91724138 L98.0718954,7.91724138 Z" id="Shape"></path>
                        </g>
                        <path d="M15.751634,27.4206897 C15.5228758,27.8068966 15.1633987,27.8068966 14.9673203,27.4206897 L11.2418301,21.1126437 C11.0130719,20.7264368 10.8496732,20.0827586 10.8496732,19.6321839 L10.8496732,14.6436782 C10.8496732,14.2252874 10.5882353,13.645977 10.2287582,13.3563218 L0.522875817,5.34252874 C0.196078431,5.05287356 0.261437908,4.82758621 0.718954248,4.82758621 L16.5686275,4.82758621 C16.9934641,4.82758621 17.6797386,4.98850575 18.0718954,5.2137931 L21.1111111,6.95172414 C21.503268,7.17701149 21.6339869,7.65977011 21.4052288,8.0137931 L20.1960784,10.0413793 C19.9673203,10.4275862 19.4771242,10.5563218 19.1176471,10.3310345 L16.9934641,9.17241379 C16.6013072,8.94712644 15.9477124,8.7862069 15.4901961,8.7862069 L11.6666667,8.7862069 C11.2418301,8.7862069 11.1437908,9.01149425 11.4705882,9.30114943 L14.2156863,11.554023 C14.5424837,11.8436782 14.8366013,12.4229885 14.8366013,12.8413793 L14.8366013,18.6022989 C14.8366013,19.0206897 14.9673203,19.6 15.0980392,19.8252874 C15.2287582,20.0827586 15.5228758,19.954023 15.751634,19.6 L27.0588235,0.289655172 C27.2875817,-0.0965517241 27.6470588,-0.0965517241 27.8431373,0.289655172 L40.6862745,22.2068966 C40.9150327,22.5931034 40.7843137,22.7218391 40.3921569,22.4965517 L25.6535948,14.0965517 C25.2614379,13.8712644 25.130719,13.3885057 25.3594771,13.0344828 L26.5686275,11.0068966 C26.7973856,10.6206897 27.2875817,10.491954 27.6470588,10.7172414 L29.5098039,11.7793103 C29.9019608,12.0045977 30.0326797,11.8758621 29.8039216,11.4896552 L27.8431373,8.17471264 C27.6143791,7.78850575 27.254902,7.78850575 27.0588235,8.17471264 L15.751634,27.4206897 Z" id="Shape" fill-rule="nonzero"></path>
                    </g>
                </g>
            </g>
        </g>
    </g>
</svg>